<?xml version="1.0" encoding="utf-8"?>
<!-- Generator: Adobe Illustrator 19.0.0, SVG Export Plug-In . SVG Version: 6.00 Build 0)  -->
<svg version="1.1" class="detalhes_jaqueta" xmlns="http://www.w3.org/2000/svg" xmlns:xlink="http://www.w3.org/1999/xlink" x="0px" y="0px"
	 width="460px" height="443.9px" viewBox="0 0 460 443.9" enable-background="new 0 0 460 443.9" xml:space="preserve">
	<g class="manga"> 
		<path d="M109.5,203.6c0.3-1.5,0.5-3,0.7-5.2c0.2-2.2,0.6-5,0.7-7.4c0.1-2.5,0.1-4.7,0.2-6.2
		c0-1.5,0.1-2.2,0.2-3c0.1-0.8,0.1-1.6,0.1-2c0-0.4,0-0.4,0.2-0.3c0.2,0.1,0.5,0.2,0.8,0.3c0.2,0.1,0.3,0.1,0.4,0.2
		c0.1,0,0.1,0.1,0.1,0.3c0.1,0.3,0.1,0.7,0.2,1.1c0.3-0.4,0.5-0.7,0.8-1.6c0.2-0.8,0.5-2.1,0.5-3.3c0-1.1-0.1-2.2-0.5-3.1
		c-0.4-1-1-1.9-1.9-2.9c-0.9-1-2.1-2-3-2.9c-0.9-0.9-1.6-1.6-1.9-2.9s-0.5-3.1-0.4-4.9c0.1-1.8,0.4-3.7,0.3-5.9c0-2.3-0.4-5-1.1-8.1
		c-0.7-3.1-1.6-6.6-2.9-10.1s-2.9-6.9-4.3-10.2c-1.4-3.3-2.5-6.5-3.3-9.7c-0.8-3.2-1.2-6.5-1.9-10.1c-0.7-3.6-1.5-7.5-2.1-11.3
		c-0.5-3.8-0.8-7.5-0.9-10.5c-0.1-3-0.2-5.2,0-6.4c0.1-1.2,0.4-1.5,0.7-1.8c0.3-0.3,0.5-0.5,0.6-1c0.1-0.4,0.2-1.1,0.3-1.6
		c0-0.2,0.1-0.3,0.2-0.5c-0.2,0.1-0.4,0.1-0.6,0.2c-0.3,0.1-0.5,0.4-1,1c-0.5,0.5-1.3,1.3-2.2,2.3c-0.9,1-1.9,2.3-3.5,4.7
		c-1.6,2.4-3.7,5.9-5.7,9.2c-1.9,3.3-3.7,6.3-5.1,9c-1.4,2.7-2.6,5-3.5,7.1c-0.9,2.1-1.5,3.9-2.9,7.7c-1.4,3.9-3.7,9.8-6.8,17.6
		c-3.1,7.8-7,17.6-10.8,26.8c-3.8,9.3-7.4,18-10.3,25.7c-2.9,7.6-5.2,14.1-7.5,21.3s-4.8,15-6.9,21.7c-2,6.7-3.7,12.1-4.5,14.9
		c-0.9,2.8-1,3.1-1.3,3.4c-0.4,0.3-1,0.6-1.7,1.2c-0.7,0.5-1.6,1.2-2.2,1.9c-0.6,0.7-1,1.4-1.3,2.2c-0.3,0.8-0.4,1.6-0.5,2.4
		c-0.1,0.8,0,1.6,0.2,2.6c0.2,1,0.7,2.2,0.9,3.2c0.3,1,0.4,1.6,0,4c-0.4,2.4-1.4,6.4-2.7,14.1s-3.1,19-4,26c-0.9,7-0.9,9.7-1.3,12.8
		c-0.4,3.1-1,6.7-1.7,10.5c-0.6,3.7-1.2,7.6-1.5,10.8c-0.2,3.2-0.1,5.8,0.2,8.1s0.7,4.5,1,5.9c0.3,1.4,0.6,2,0.8,2.3
		c0.1,0.3,0.1,0.3-0.3,2c-0.4,1.7-1.3,5.2-1.9,8.8c-0.6,3.7-0.9,7.5-0.8,11.5c0.1,4,0.7,8,1.1,10.3c0.4,2.2,0.6,2.7,0.7,2.9
		c0.1,0.2,0.1,0.2,0.1,0.2s0,0-0.5,1.1s-1.5,3.3-2.2,5.2c-0.7,1.9-1.2,3.3-1.4,4.7c-0.2,1.1-0.3,2-0.3,3v0.1c0,0.3,0,0.5,0,0.8
		c0.1,1.2,0.2,2.4,0.5,3.4c0.2,1,0.5,1.9,0.7,2.3s0.2,0.5,0.2,0.6c0,0.1,0,0.2,0,0.4c0,0.1,0,0.3,0,0.4c0,0.2,0.1,0.4,0.1,0.8
		s0.2,0.7,0.5,1.1c0.3,0.4,0.8,0.7,1.2,0.9c0.4,0.2,0.6,0.3,0.7,0.3c0.1,0,0.1,0,0.1,0s0,0,0,1.3c0,1.3,0,4,0.2,6.7
		c0.2,2.7,0.5,5.5,0.4,8.2c-0.1,2.7-0.6,5.4-1.1,7.4c-0.4,2-0.8,3.3-0.6,4c0.2,0.7,1,0.7,2.6,0.8c1.5,0.1,3.8,0.2,6.6,0.3
		c2.8,0.1,6,0.3,9.2,0.5c3.2,0.2,6.4,0.5,9.6,0.4c3.2-0.1,6.5-0.6,9.3-1.1c2.8-0.5,5.1-1,7.1-1.6c2.1-0.6,3.9-1.2,5.1-1.7
		c1.3-0.5,2-0.9,2.5-1.4c0.6-0.5,0.9-0.9,1.1-1.3c0.2-0.4,0.2-0.6,0-1.1c-0.2-0.5-0.7-1.3-1.5-2.7c-0.8-1.4-1.9-3.3-2.7-5.2
		c-0.8-1.9-1.2-3.8-1.4-6.1c-0.2-2.3-0.3-5.1-0.3-6.7c0-0.6,0-1,0-1.3c0-0.4,0.1-0.7,0.1-0.9c0-0.1,0.1-0.2,0.1-0.3
		c0.2-0.4,0.4-0.6,0.7-1.1c0.3-0.4,0.6-1.1,0.8-1.4c0.2-0.3,0.2-0.3,0.2-0.4c0.1-0.1,0.3-0.4,0.4-0.6c0.1-0.2,0.2-0.5,0.2-0.8
		c0-0.3,0-0.7,0-1c0-0.3,0-0.5,0-0.6c0-0.2,0-0.3-0.1-0.4c0-0.1-0.1-0.2-0.2-0.3c0-0.1,0-0.1-0.2-1.1c-0.2-1-0.5-2.8-0.9-4.7
		c-0.3-1.9-0.7-3.8-0.9-4.8c-0.2-1-0.2-1,0.1-1.2c0.3-0.3,0.9-0.8,2.4-2.1c1.5-1.3,3.9-3.4,5.3-5.2c1.4-1.8,1.7-3.5,1.9-4.9
		c0.2-1.4,0.2-2.6-0.2-4.2c-0.4-1.6-1.2-3.6-2.2-5.4c-1-1.8-2.1-3.5-2.6-4.4c-0.6-0.8-0.6-0.8,0.1-2.7c0.6-1.8,1.9-5.5,3-8.7
		c1.1-3.2,2-6,2.8-8.9c0.9-2.9,1.7-5.9,2.5-8.8c0.8-2.8,1.7-5.5,2.3-7.7c0.6-2.1,0.9-3.7,1.2-5.5s0.7-3.6,1.2-5.9
		c0.6-2.3,1.3-5,1.8-6.7c0.5-1.7,0.6-2.5,0.7-3.7c0.1-1.2,0.2-2.8-0.1-4.4c-0.3-1.6-0.9-3.1-1-4.4c-0.1-1.2,0.4-2.1,1-3
		c0.7-0.9,1.6-1.8,2.7-3.1c1.1-1.4,2.6-3.3,3.6-4.9c1.1-1.6,1.8-2.9,2.3-3.9c0.5-1,0.8-1.7,1-2.5c0.2-0.8,0.2-1.8,0-3
		c-0.1-1.2-0.4-2.7-0.9-4.3c-0.5-1.6-1.3-3.2-1.7-4.1c-0.4-0.9-0.5-1-0.5-1c0,0,0,0,0.5-0.9c0.5-0.9,1.6-2.6,2.6-4.6
		c1-2,1.8-4.2,2.4-6c0.6-1.8,0.8-3.2,1.2-5c0.3-1.8,0.8-4,1.1-5.6c0.3-1.6,0.6-2.6,0.7-3.1c0.1-0.5,0.1-0.5,0.7-1.3
		c0.6-0.8,1.8-2.4,2.9-4c1-1.6,1.9-3.1,2.6-4.6c0.7-1.5,1.3-3,1.7-4.1c0.4-1.1,0.6-2,0.7-2.6c0.1-0.6,0.2-1,0.9-1.7
		c0.6-0.7,1.8-1.8,3.1-3.2c1.3-1.3,2.6-2.9,3.8-4.5c1.1-1.6,2.1-3.1,3.1-5.1c1-2,2-4.4,2.8-6.2C108.7,206.4,109.2,205.1,109.5,203.6
		z M410.5,409.8c0,0,0,0,0,1.9c0,1.9-0.1,5.6-0.4,8.7c-0.3,3.1-0.8,5.6-1.5,7.6c-0.7,2-1.6,3.5-2.2,4.5c-0.6,1-0.8,1.5-0.8,1.9
		c0,0.5,0.3,0.9,1.1,1.6c0.8,0.6,2.1,1.4,3.7,2.1c1.6,0.7,3.6,1.4,6.5,2c2.9,0.6,6.6,1.2,10.2,1.4c3.5,0.3,6.9,0.3,10.3,0.1
		c3.4-0.2,6.9-0.5,9.9-0.7s5.5-0.3,7.1-0.4c1.6-0.1,2.4-0.4,2.7-0.6c0.4-0.3,0.4-0.6,0.1-1.8c-0.3-1.2-0.8-3.3-1.1-4.8
		c-0.3-1.5-0.3-2.6,0-4.6c0.3-2,0.8-4.9,1-7.4c0.3-2.5,0.3-4.6,0.2-6.1c0-1.6-0.1-2.6-0.1-3.1c0-0.1,0-0.2,0-0.3c0-0.2,0-0.2,0-0.2
		s0,0,0,0c0,0,0.1,0,0.2-0.1c0.2-0.1,0.7-0.2,1.1-0.5c0.4-0.4,0.8-0.9,0.9-1.5s0-1.2,0-1.4c-0.1-0.3-0.1-0.3,0-0.4
		c0-0.1,0.1-0.2,0.1-0.3c0-0.1-0.1-0.3-0.1-0.3c0-0.1,0-0.1,0-0.7c0.1-0.6,0.2-1.9,0.3-4c0.2-2.1,0.4-5,0.3-8.3
		c-0.1-3.4-0.5-7.2-1.2-11.4c-0.7-4.2-1.7-8.7-2.2-10.9c-0.5-2.2-0.5-2.2-0.5-2.2s0,0,0.2-1.9c0.2-1.9,0.7-5.8,1-10.4
		c0.2-4.6,0.2-9.9-0.2-15.8c-0.4-5.8-1.3-12.2-1.8-15.9c-0.5-3.8-0.6-5-0.7-7.5c-0.1-2.5-0.2-6.5-0.7-10.6
		c-0.5-4.2-1.3-8.6-2.2-13.9c-0.9-5.3-1.8-11.5-2.5-15.9c-0.6-4.4-1-6.9-1.2-9.9c-0.2-3-0.1-6.5-0.1-9.2c0.1-2.7,0.2-4.7,0.2-6.1
		s-0.2-2.4-0.9-3.6c-0.7-1.2-1.8-2.7-2.8-3.8c-1-1.1-1.8-1.8-2.5-2.3c-0.6-0.5-1-0.7-1.2-0.9c-0.2-0.1-0.2-0.1-0.2-0.1s0,0-3.2-10.1
		c-3.2-10-9.6-30.1-16.6-49.1c-6.9-19-14.4-36.8-20.4-51.4c-6-14.7-10.4-26.2-14.9-35c-4.4-8.8-8.8-14.9-11.7-18.6
		c-2.9-3.7-4.3-4.9-5-5.5c-0.5-0.5-0.7-0.6-0.9-0.8c0,0.1,0.1,0.2,0.1,0.3c0.4,1.5,0.9,3.7,1.2,5.7s0.5,3.9,0.5,6.2
		c0.1,2.3,0,5.1-0.1,8c-0.2,2.9-0.5,6-0.9,8.8c-0.4,2.8-0.9,5.3-1.6,8.2c-0.7,2.8-1.6,6-2.7,10.3c-1.1,4.3-2.5,9.9-3.3,13.3
		c-0.8,3.4-0.9,4.5-0.9,5.8c0,1.3,0.1,2.6,0.1,4c0,1.3,0,2.6-0.2,3.9c-0.2,1.3-0.6,2.6-1.1,3.8c-0.6,1.2-1.3,2.2-2.1,3.2
		s-1.6,2.1-2.6,3.5c-1,1.5-2.1,3.4-3,5.2s-1.7,3.4-2.3,4.8c-0.6,1.4-0.9,2.5-1.2,3.9c-0.2,1.3-0.3,2.9-0.3,4.4c0,1.5,0,2.8,0.1,4
		c0.1,1.1,0.2,2,0.3,2.7c0.1,0.4,0.2,0.6,0.3,0.9c0,0,0-0.1,0-0.1c0.1-0.2,0.2-0.6,0.2-0.8c0.1-0.3,0.1-0.5,0.2-0.6
		c0.1-0.1,0.1-0.2,0.2-0.2c0.1,0,0.1-0.1,0.1-0.1c0,0,0,0,0,0.6c0,0.6,0,1.8-0.1,3.2c0,1.5-0.1,3.2-0.1,4.5
		c-0.1,1.4-0.1,2.3-0.1,3.4c0,1.1,0.1,2.2,0.6,3.9c0.6,1.8,1.6,4.1,2.8,6.4c1.2,2.3,2.6,4.4,4.4,6.6c1.7,2.2,3.7,4.4,4.8,5.5
		c1,1.1,1,1.1,1.6,3.9c0.6,2.8,1.8,8.3,2.7,12.4c1,4.1,1.7,6.6,2.9,9.6c1.2,3,2.7,6.3,4.7,9.3c2,3,4.3,5.6,6.3,7.5
		c2,1.9,3.6,3.1,4.4,3.7c0.8,0.6,0.9,0.7,1,0.9c0.1,0.2,0.3,0.6,0.4,0.8c0.1,0.2,0.1,0.2-0.8,1.6c-0.9,1.4-2.7,4.3-3.8,6.6
		c-1.1,2.2-1.5,3.8-1.5,5.4c0,1.6,0.4,3.3,1.3,4.7c1,1.4,2.5,2.6,4.1,3.6c1.6,1,3.2,1.7,4.1,2c0.8,0.4,0.8,0.4,0.8,0.4s0,0,0.4,4.2
		s1.2,12.6,1.9,18.1c0.6,5.5,1,8,2.1,11.2s2.6,7.2,3.6,9.7c0.9,2.5,1.2,3.6,1.5,5.1c0.2,1.5,0.4,3.4,0.7,5.3
		c0.3,1.8,0.7,3.6,0.9,4.5c0.2,0.9,0.2,0.9,0,2.4c-0.2,1.6-0.5,4.7-0.6,7.2c0,2.5,0.3,4.3,1,6.1c0.7,1.8,1.9,3.5,2.4,4.4
		c0.6,0.9,0.6,0.9,0.4,3.2c-0.2,2.3-0.5,6.9-0.5,11c-0.1,4.1,0.1,7.8,0.4,11s0.9,5.8,1.5,8c0.6,2.2,1.3,3.9,1.8,5
		c0.4,1.1,0.6,1.4,0.7,1.6c0.1,0.2,0.1,0.2,0.1,0.3c0,0.1-0.1,0.2-0.1,0.3c0,0.1,0,0.2,0.1,0.2c0.1,0,0.2,0,0.2,0c0.1,0,0.1,0,0,0.1
		c-0.1,0.1-0.2,0.4-0.2,0.7c-0.1,0.3,0,0.6,0.2,1.1c0.2,0.4,0.5,1,0.9,1.5c0.4,0.5,0.9,1.1,1.2,1.3
		C410.4,409.8,410.4,409.8,410.5,409.8C410.5,409.8,410.5,409.8,410.5,409.8z"/>
	</g>
	<g class="barra">	
		<path d="M167.8,388.5c-1.2-0.1-2.5-0.2-3.4-0.6c-0.9-0.3-1.4-0.9-1.6-1.1c-0.2-0.3-0.2-0.3-0.3-0.3
		c0,0,0,0-0.2,0c-0.2,0-0.6,0-1.4,0.1c-0.8,0.1-2,0.4-3.4,0.5c-1.3,0-2.8-0.2-3.6-0.6c-0.8-0.4-0.9-0.9-1-1.2s-0.1-0.3-0.1-0.3
		s0,0-0.4,0s-1.1,0-2-0.1c-0.9-0.1-1.9-0.3-2.6-0.4c-0.7-0.1-0.9-0.1-1.2,0c-0.2,0.1-0.4,0.2-0.7,0.3c-0.3,0.2-0.8,0.4-1.4,0.6
		c-0.7,0.2-1.5,0.3-2.3,0.2c-0.8,0-1.4-0.2-2.1-0.5c-0.7-0.3-1.4-0.7-1.7-0.9c-0.3-0.2-0.3-0.2-0.3-0.2c0,0,0,0-0.4,0.1
		c-0.4,0.1-1.2,0.3-2.1,0.2c-0.8-0.1-1.7-0.5-2.1-0.9c-0.4-0.4-0.4-0.8-0.4-1c0-0.2,0-0.2,0-0.2s0,0-0.1,0.1
		c-0.1,0.1-0.2,0.2-0.7,0.4c-0.5,0.2-1.4,0.6-2.4,0.6c-1,0.1-2-0.2-2.7-0.5c-0.7-0.3-1-0.8-1.1-1s-0.2-0.2-0.2-0.2s0,0-0.1,0.1
		c-0.1,0.1-0.4,0.2-0.8,0.3c-0.4,0.1-0.9,0.2-1.3,0.2c-0.4,0.1-0.8,0.1-1.2,0.1c0.1,0,0.1,0,0.1,0c0.1,0,0.1,0.1,0.1,0.2
		c0,0.2,0,0.4,0.1,0.6c0,0.2,0.1,0.3,0.1,0.4c0,0.1,0,0.1-0.2,1.4c-0.2,1.3-0.7,3.9-1.4,7.7c-0.7,3.8-1.5,8.9-2,12.3
		c-0.5,3.4-0.7,5.2-0.7,6.2c0,1,0.2,1.3,0.6,1.7c0.4,0.4,0.9,0.9,1.9,1.4c0.9,0.5,2.3,0.9,4.5,1.5c2.3,0.5,5.4,1.1,10.5,1.8
		c5,0.7,12,1.5,18.6,2.1c6.6,0.6,12.9,1.1,19.5,1.6c6.7,0.5,13.7,1,17.5,1.2c3.8,0.2,4.4,0.1,4.7,0.1c0.3-0.1,0.3-0.1,3.7,0.2
		c3.4,0.3,10.1,0.9,14.9,1.3c4.9,0.3,7.9,0.4,9.6,0.4c1.7,0,2-0.1,2.1-0.2c0,0,0.1,0,0.1-0.1c0,0,0-0.1,0-0.1c0,0,0,0,0,0
		c0,0,0,0,0,0c0,0,0,0,0.1,0c0.1,0,0.4,0,0.5,0c0.1,0,0.1,0,0.1,0.2c0,0.2,0,0.6,0.1,0.8c0.1,0.2,0.3,0.3,0.8,0.3
		c0.5,0,1.2,0.1,1.7,0c0.5,0,0.8-0.1,0.9-0.1c0.2,0,0.2-0.1,0.2-0.3s0-0.6,0-0.8c0-0.2,0-0.2,0.1-0.2c0.1,0,0.5,0,0.6,0
		c0.2,0,0.2,0,0.2,0.1c0,0.1,0,0.2,0,0.3c0,0.1,0,0.1,0.7,0.1c0.7,0,2,0.1,4.9,0.1c2.9,0,7.4-0.2,11.7-0.5c4.3-0.3,8.5-0.8,10.6-1
		c2.1-0.2,2.1-0.2,2.6-0.2c0.5,0,1.6,0.1,2.6,0c1,0,1.8-0.2,4.7-0.5c2.9-0.3,7.8-0.7,12.9-1.1c5-0.4,10.2-0.8,16-1.3
		c5.8-0.5,12.3-1.2,17.2-1.8c4.9-0.5,8.2-0.9,11.2-1.4c3-0.5,5.7-1,8.1-1.6c2.4-0.6,4.4-1.3,5.6-2.2c1.2-0.9,1.5-2.1,1.5-3.7
		c0-1.6-0.2-3.5-0.8-7.4c-0.6-3.9-1.6-9.6-2.3-13.2c-0.6-3.6-1-5.1-1.1-5.9c-0.1-0.5-0.1-0.7-0.1-0.7c-0.1,0-0.1-0.1-0.2-0.1
		c-0.4-0.2-1.1-0.5-1.5-0.7c-0.4-0.1-0.4-0.1-0.4-0.1c0,0-0.1,0.1-0.2,0.3c-0.1,0.2-0.4,0.6-0.5,0.8c-0.1,0.2-0.1,0.2-0.1,0.2
		s0,0.1-0.2,0.3c-0.2,0.2-0.6,0.4-1.1,0.6c-0.5,0.2-1.2,0.3-1.8,0.3c-0.6,0-1.1-0.2-1.8-0.4c-0.7-0.2-1.6-0.5-2-0.7
		c-0.4-0.2-0.4-0.2-0.5,0s-0.2,0.5-0.4,0.9s-0.7,0.7-1.4,0.9c-0.7,0.2-1.5,0.4-2.4,0.3c-0.8-0.1-1.6-0.4-2.2-0.6
		c-0.6-0.3-1.2-0.5-1.4-0.6c-0.3-0.1-0.3-0.1-0.3-0.1s0,0-0.3,0.1c-0.3,0.1-1,0.3-1.6,0.4c-0.7,0.1-1.4,0-1.7,0
		c-0.4,0-0.4,0-0.4,0.1c0,0.1-0.1,0.4-0.3,0.8c-0.2,0.3-0.6,0.7-1.4,1c-0.7,0.3-1.8,0.5-3,0.5c-1.2,0-2.4-0.1-3.1-0.3
		c-0.7-0.2-1-0.4-1.3-0.5c-0.4-0.1-0.8-0.2-1.4-0.2c-0.6,0-1.3,0.1-1.7,0.3c-0.4,0.2-0.5,0.5-1,0.8c-0.5,0.3-1.4,0.7-2.1,0.9
		c-0.7,0.2-1.3,0.3-2,0.3c-0.7,0-1.7-0.1-2.4-0.2c-0.7-0.1-1.3-0.3-1.7-0.5s-0.8-0.4-1-0.5s-0.2-0.1-0.3-0.1c-0.1,0-0.4,0.1-1.3,0.3
		c-0.9,0.1-2.4,0.3-3.3,0.4c-0.9,0.1-1.2,0-1.3,0s-0.1,0-0.2,0c0,0,0,0.1-0.2,0.3c-0.2,0.2-0.4,0.5-1.1,0.9
		c-0.7,0.4-1.8,0.8-3.3,1.1s-3.4,0.5-4.9,0.4c-1.5,0-2.6-0.3-3.3-0.5c-0.7-0.2-1.1-0.3-1.3-0.4c-0.3-0.1-0.4-0.1-1.2,0.1
		c-0.7,0.2-2,0.6-3,0.9c-1,0.3-1.8,0.4-2.8,0.4c-0.9,0-2,0-2.6,0c-0.6,0-0.7,0-0.8,0.1c-0.1,0-0.2,0.1-2,0.4
		c-1.8,0.3-5.3,0.9-9.4,1.3c-4.1,0.4-9,0.6-13.1,0.7c-2.2,0.1-4.1,0.1-5.8,0.2c-1.5,0-2.8,0-3.8,0c-0.6,0-1,0-1.4-0.1
		c-1-0.1-1.4-0.1-2.1-0.2c-0.9-0.1-2.2-0.1-5.3-0.2s-8.2-0.4-11.8-0.8c-3.6-0.3-5.8-0.7-7.1-0.9c-1.3-0.2-1.8-0.3-2.3-0.4
		c-0.6-0.1-1.2-0.3-2.1-0.3c-0.9,0-2,0-2.9,0c-0.9,0-1.6-0.1-2.4-0.3c-0.7-0.2-1.5-0.5-2.2-0.7c-0.7-0.2-1.2-0.3-1.5-0.4
		c-0.3-0.1-0.3,0-0.8,0.1c-0.6,0.2-1.7,0.4-2.9,0.5c-1.3,0.1-2.7,0-3.7-0.2c-1-0.2-1.6-0.4-2.2-0.7c-0.6-0.3-1.1-0.5-1.8-0.6
		c-0.7-0.1-1.5-0.1-2.3,0.1c-0.8,0.2-1.5,0.4-2.5,0.6C170.1,388.5,169,388.6,167.8,388.5z"/>
	</g>
	<g class="ziper">	
		<path d="M228.4,78.4c0.1,2.2,0.3,4.7,0.3,6.9c0,2.3,0,4.3,0,11.3c-0.1,7-0.1,18.8-0.1,27.7
		c0,8.8,0,14.7,0,23.3c0,8.6-0.1,20.1-0.1,29.7c0,9.6,0,17.4,0,23.4c0,6-0.1,10.1-0.2,14.3c0,4.1-0.1,8.2-0.1,12.2c0,4,0,8-0.1,17.5
		c0,9.5-0.1,24.5-0.2,35.3c-0.1,10.9-0.1,17.6-0.2,23.4c0,5.8-0.1,10.6-0.1,15c0,4.3-0.1,8.2-0.1,12.6c-0.1,4.4-0.1,9.4-0.2,18.8
		c-0.1,9.4-0.2,23.1-0.3,30.6c-0.1,7.5-0.1,8.9-0.1,9.9c0,1-0.1,1.7-0.1,2.4c0,0.1,0,0.1,0,0.2c0,0.8-0.1,1.7-0.1,5.4
		c0,3.7-0.1,10.2-0.1,14.7c0,4.5,0,7,0,8.4c0,1.5,0,1.9,0.1,2.3c0,0,0,0,0,0.1c0,0,0,0,0.1,0c0.1,0,0.4,0,0.5,0c0.1,0,0.1,0,0.1,0.2
		c0,0.2,0,0.6,0.1,0.8c0.1,0.2,0.3,0.3,0.8,0.3c0.5,0,1.2,0.1,1.7,0c0.5,0,0.8-0.1,0.9-0.1c0.2,0,0.2-0.1,0.2-0.3s0-0.6,0-0.8
		c0-0.2,0-0.2,0.1-0.2c0.1,0,0.5,0,0.6,0c0.2,0,0.2,0,0.2,0.1c0,0.1,0,0.2,0,0.3c0-0.3,0.1-0.7,0.1-1.6c0-1.1-0.1-3-0.2-14.1
		c0-4-0.1-9.2-0.1-15.6c-0.1-11.4-0.1-26.6-0.1-45.6c0.1-29.8,0.5-69,0.7-99.1c0.2-30.2,0.2-51.2,0.3-63.6c0-12.4,0-16.1,0.1-25.2
		c0-9.1,0.1-23.4,0.1-35.6c0-12.2,0.1-22.2,0.2-29.3c0.1-7.2,0.2-11.5,0.4-14.7c0.1-3.2,0.2-5.2,0.4-6.6c0.2-1.4,0.5-2.1,0.8-2.8
		c0.3-0.6,0.7-1.2,1-1.7c-0.3,0.3-0.4,0.3-0.9,0.5c-0.4,0.2-1.1,0.5-1.5,0.6c-0.3,0.1-0.3,0.1-0.5,0.1c-0.1,0-0.4-0.1-0.5-0.2
		c-0.1,0-0.1,0-0.2,0.1c0,0.1-0.1,0.3-0.2,0.5c0,0.1-0.1,0.1-0.1,0.1c-0.1,0-0.2-0.1-0.3-0.1s-0.1,0-0.1-0.1c0-0.1,0-0.3,0-0.4
		c0-0.1,0-0.1-0.2-0.1c-0.2,0-0.6,0-0.8,0c-0.2,0-0.2,0-0.2,0.1c0,0.1,0,0.3,0,0.4c0,0.1,0,0.1-0.1,0.1c-0.1,0-0.2,0-0.3,0
		c-0.1,0-0.1,0-0.1-0.1s-0.1-0.3-0.2-0.4c0-0.1,0-0.1,0-0.1s0,0-0.1,0c-0.1,0-0.2,0-0.3,0c-0.1,0-0.3,0.1-0.4,0.1
		c-0.1,0-0.1,0-0.3,0c-0.2-0.1-0.7-0.2-1.1-0.4c-0.4-0.2-0.9-0.4-1.1-0.5c-0.1-0.1-0.2-0.1-0.2-0.1c0.6,1.2,1.2,2.3,1.6,3.9
		C228.2,74.2,228.3,76.2,228.4,78.4z"/>
	</g>
	<g class="bolso">
		<path d="M158.3,256.9c-0.2-0.1-0.7-0.1-1.6-0.2c-0.8,0-2,0-2.7,0c-0.6,0.1-0.7,0.2-1.1,0.2
		c-0.3,0.1-0.9,0.1-1.4,0.1c-0.4,0-0.7,0-0.9,0c-0.2,0-0.3-0.1-0.6-0.2c-0.3-0.1-0.9-0.3-1.5-0.4c-0.6-0.1-1.2-0.1-1.5-0.1
		c-0.3,0-0.3,0.1-0.2,0.9c0.1,0.8,0.3,2.4,0.5,5.8c0.2,3.4,0.4,8.5,0.5,12.2c0.1,3.7,0.2,6,0.3,7.2c0.1,1.3,0.1,1.6,0,3
		s-0.4,4-0.8,8.3c-0.4,4.3-0.9,10.3-1.4,14.4c-0.4,4.1-0.8,6.3-1.2,8.8s-0.8,5.2-1.4,7.7c-0.6,2.5-1.2,4.8-1.9,7
		c-0.7,2.2-1.4,4.4-2.1,6.6c-0.7,2.2-1.3,4.3-1.8,5.7c-0.4,1.4-0.6,2.1-0.7,2.8c-0.1,0.7-0.1,1.5-0.1,1.9c0,0.5,0,0.6-0.1,1
		c-0.1,0.4-0.3,0.9-0.5,1.5c-0.2,0.6-0.4,1.2-0.5,1.5c-0.1,0.3-0.2,0.4-0.1,0.5c0.1,0.1,0.2,0.1,0.4,0.1c0.2,0,0.4,0.1,0.6,0.1
		s0.4,0.2,0.7,0.4c0.3,0.2,0.8,0.4,1.2,0.7c0.4,0.3,0.7,0.6,1,0.7c0.2,0.2,0.4,0.2,0.5-0.2c0.1-0.4,0.1-1.1,0.2-2.3
		c0.1-1.2,0.2-2.7,0.7-4.8c0.5-2.1,1.4-4.6,2.4-7.2c1-2.6,2.2-5.3,3.2-7.7c1-2.4,1.9-4.4,3-7.1c1-2.7,2.3-6.2,3.2-9
		c0.9-2.8,1.5-4.9,2.1-7.4c0.6-2.5,1.1-5.4,1.6-7.9c0.5-2.6,0.8-4.8,1.2-7.9c0.3-3.1,0.6-7,0.7-8.9c0.1-1.9,0.1-1.9,0.2-5.7
		c0.1-3.7,0.2-11.2,0.3-15.4c0-4.2,0-5.1,0-5.6c0-0.6,0-0.8,0-1S158.5,257,158.3,256.9z M308,261c0,3.2,0.1,9.5,0.5,17.3
		c0.4,7.7,1.1,16.8,1.7,23.8s1.3,11.9,2.5,18.7c1.2,6.8,3,15.5,4.4,21.4c1.4,5.9,2.5,8.9,3.2,10.8c0.7,1.9,1,2.7,1.5,2.9
		c0.5,0.2,1.2-0.1,1.9-0.5c0.7-0.4,1.6-0.7,2-0.9c0.4-0.2,0.4-0.2,0.2-1.2c-0.2-1-0.5-3.1-1.4-8.2c-0.9-5.1-2.5-13.3-3.6-19.7
		c-1.1-6.4-1.8-11.1-2.3-16.2c-0.5-5.1-0.7-10.6-1-15.6c-0.2-5-0.4-9.5-0.5-14.6c-0.1-5.1,0-10.9,0.1-14.8c0-3.9,0.1-5.8,0.1-6.9
		c0-1,0.1-1.1,0.1-1.2c0-0.1,0-0.1-0.8,0.1c-0.8,0.2-2.4,0.5-3.5,0.7c-1.2,0.2-1.9,0.2-2.7,0.3s-1.7,0.3-2.1,0.5
		c-0.4,0.1-0.4,0.1-0.4,0.2C308,257.8,308,257.9,308,261z"/>
	</g>	
	<g class="punho">
		<path d="M47.7,408.9c-1.2-0.1-2.9-0.2-4.6-0.2c-1.7,0-3.5,0-5.3,0c-1.8,0-3.6,0.1-5.4,0.2
		c-1.8,0.1-3.7,0.3-5.8,0.4c-2,0.2-4.2,0.3-6.2,0.5c-2,0.2-3.7,0.4-5.4,0.8c-1.7,0.3-3.3,0.7-4.4,0.9c-1.1,0.2-1.7,0.3-2.4,0.4
		s-1.3,0.2-2,0.4s-1.4,0.4-1.8,0.6c-0.4,0.2-0.4,0.3-0.5,0.5c0,0.2,0,0.6,0.1,0.9c0,0,0,0,0,1.3c0,1.3,0,4,0.2,6.7
		c0.2,2.7,0.5,5.5,0.4,8.2c-0.1,2.7-0.6,5.4-1.1,7.4c-0.4,2-0.8,3.3-0.6,4c0.2,0.7,1,0.7,2.6,0.8c1.5,0.1,3.8,0.2,6.6,0.3
		c2.8,0.1,6,0.3,9.2,0.5c3.2,0.2,6.4,0.5,9.6,0.4c3.2-0.1,6.5-0.6,9.3-1.1c2.8-0.5,5.1-1,7.1-1.6c2.1-0.6,3.9-1.2,5.1-1.7
		c1.3-0.5,2-0.9,2.5-1.4c0.6-0.5,0.9-0.9,1.1-1.3c0.2-0.4,0.2-0.6,0-1.1c-0.2-0.5-0.7-1.3-1.5-2.7c-0.8-1.4-1.9-3.3-2.7-5.2
		c-0.8-1.9-1.2-3.8-1.4-6.1c-0.2-2.3-0.3-5.1-0.3-6.7c0-0.6,0-1,0-1.3c0-0.4,0.1-0.7,0.1-0.9c0-0.3,0.1-0.7,0.2-1.1
		c0.1-0.5,0.2-1,0.2-1.4c0-0.4-0.1-0.7-0.2-0.8c-0.1-0.2-0.1-0.2-0.5-0.3S48.9,409,47.7,408.9z M410.1,420.4
		c-0.3,3.1-0.8,5.6-1.5,7.6c-0.7,2-1.6,3.5-2.2,4.5c-0.6,1-0.8,1.5-0.8,1.9c0,0.5,0.3,0.9,1.1,1.6c0.8,0.6,2.1,1.4,3.7,2.1
		c1.6,0.7,3.6,1.4,6.5,2c2.9,0.6,6.6,1.2,10.2,1.4c3.5,0.3,6.9,0.3,10.3,0.1c3.4-0.2,6.9-0.5,9.9-0.7s5.5-0.3,7.1-0.4
		c1.6-0.1,2.4-0.4,2.7-0.6c0.4-0.3,0.4-0.6,0.1-1.8c-0.3-1.2-0.8-3.3-1.1-4.8c-0.3-1.5-0.3-2.6,0-4.6c0.3-2,0.8-4.9,1-7.4
		c0.3-2.5,0.3-4.6,0.2-6.1c0-1.6-0.1-2.6-0.1-3.1c0-0.1,0-0.2,0-0.3c0-0.2,0-0.2,0-0.2s0,0,0,0c0-0.1,0-0.2,0-0.3
		c0-0.2,0.1-0.5,0-0.7c0-0.2-0.1-0.3-0.3-0.5c-0.2-0.2-0.6-0.4-1.1-0.6c-0.5-0.2-1-0.3-1.7-0.5c-0.7-0.1-1.6-0.3-2.6-0.4
		s-2.1-0.2-3-0.4c-0.9-0.2-1.6-0.4-3-0.6s-3.7-0.4-5.7-0.6c-2-0.2-3.7-0.4-5.9-0.5c-2.1-0.1-4.7-0.2-6.7-0.3c-2-0.1-3.6-0.1-5.2-0.1
		c-1.6,0-3.3-0.1-4.7-0.1c-1.4,0-2.4,0.1-3.5,0.3c-1,0.2-2.1,0.6-2.7,0.9c-0.6,0.3-0.9,0.5-1,0.6c-0.1,0.1-0.1,0.2,0,0.6
		c0.1,0.4,0.2,1,0.3,1.6c0,0,0,0,0,1.9C410.4,413.6,410.4,417.3,410.1,420.4z"/>
	</g>
	<g class="gola">	
		<path d="M186.9,54.1c2.1,1.4,4.6,2.9,7.7,4.1c3,1.2,6.5,2,10.3,2.8c3.8,0.8,7.8,1.5,10.5,2
		c2.7,0.6,4,1,5.3,1.4c-0.4-0.1-0.4-0.1-0.4-0.3c0-0.2-0.1-0.5-0.2-1c-0.1-0.5-0.4-1.2-1.2-3s-2.1-4.8-4.3-8.5
		c-2.1-3.7-5-8-6.9-10.8c-1.9-2.7-2.7-3.9-3.1-4.4c-0.4-0.6-0.4-0.6-0.4-0.6s0,0,0,0c0,0,0.1,0,0.3,0c0.2,0,0.7,0,1.2,0
		c0.6,0,1.3,0,2.2,0c0.9,0,2.1,0,3.4,0c1.3,0,2.6-0.1,4.1-0.1c1.5,0,3.2-0.1,5.2-0.1c2,0,4.2,0,6.4,0c2.2,0,4.3-0.1,7.5-0.1
		c3.2,0,7.5,0,10.5,0.1c3,0.1,4.8,0.1,6.2,0.2c1.5,0,2.7,0.1,3.7,0c1,0,1.7,0,2-0.1c0.3,0,0.3,0,0.3,0s0,0-0.1,0.1
		c-0.1,0.1-0.3,0.4-0.9,1.4c-0.7,0.9-1.8,2.5-3.4,5.1c-1.7,2.6-3.9,6.4-5.3,8.7c-1.4,2.4-2,3.5-2.8,5c-0.8,1.5-1.7,3.5-2.2,5
		c-0.6,1.5-0.8,2.4-0.9,2.8c0,0.2-0.1,0.3-0.1,0.3c2.6-0.6,5.1-1.2,8-1.8c2.9-0.6,6.1-1.1,9-1.8c2.9-0.7,5.4-1.6,7.5-2.4
		c2-0.8,3.5-1.4,5-2.1c1.4-0.7,2.7-1.5,4-2.5c1.3-1,2.5-2.2,3.6-3.4c1.1-1.2,2-2.3,2.8-3.7c0.8-1.4,1.6-3,2-4.6
		c0.5-1.5,0.6-2.9,0.5-4.2c-0.1-1.3-0.6-2.3-1.1-3.2c-0.3-0.5-0.7-0.9-1-1.3c0,0,0,0,0,0c-0.3-0.1-0.3-0.1-0.5-0.2
		c-0.3-0.2-0.9-0.5-1.5-0.8c-0.6-0.3-1.4-0.7-1.8-0.9c-0.5-0.2-0.7-0.4-0.8-0.4c-0.1-0.1-0.1-0.1-0.5-0.8c-0.4-0.7-1.2-2.1-2-4.4
		c-0.8-2.2-1.6-5.2-2-7.6c-0.4-2.4-0.4-4.3-0.5-5.8c-0.1-1.5-0.3-2.7-0.8-3.8c-0.5-1.1-1.2-2.1-2.2-3c-1.1-0.9-2.4-1.6-4-2.3
		c-1.5-0.7-3.2-1.4-5.1-1.8c-1.9-0.4-4.1-0.7-7.2-0.9c-3.2-0.2-7.3-0.4-12.7-0.5c-5.4-0.1-12-0.1-18.3,0.1
		c-6.3,0.1-12.1,0.4-16.3,0.8c-4.2,0.5-6.6,1.1-8.7,2c-2.1,0.9-3.8,1.9-5,3c-1.2,1.1-1.9,2.3-2.4,3.7c-0.4,1.4-0.6,2.9-0.7,4.9
		c-0.2,2-0.4,4.4-0.5,6c-0.2,1.7-0.3,2.6-0.9,4.1c-0.6,1.6-1.7,3.7-2.6,5c-0.8,1.3-1.4,1.6-2.1,2c-0.1,0.1-0.3,0.2-0.4,0.3
		c-0.6,0.4-1.3,0.8-1.8,1.1c-0.1,0-0.2,0.1-0.3,0.1c-0.1,0.1-0.2,0.2-0.4,0.2c-0.7,0.5-1.1,1-1.6,1.7c-0.4,0.7-0.9,1.6-1.1,2.4
		s-0.3,1.6-0.1,2.8c0.2,1.1,0.6,2.6,1.4,4.3c0.8,1.6,1.9,3.4,3.3,4.9C183.2,51.2,184.8,52.6,186.9,54.1z"/>
	</g>	
	<path class="fundo_gola" d="M207.7,40.8c1.9,2.7,4.8,7.1,6.9,10.8c2.1,3.7,3.5,6.6,4.3,8.5s1,2.5,1.2,3
	c0.1,0.5,0.2,0.8,0.2,1c0,0.2,0,0.2,0.4,0.3c0.4,0.1,1.1,0.4,1.7,0.6c0.6,0.2,0.9,0.4,1.3,0.7c0.4,0.3,0.7,0.7,1,1
	c0.3,0.3,0.5,0.6,0.8,0.9c0.2,0.3,0.5,0.7,0.7,0.9c0.1,0.1,0.1,0.2,0.2,0.2c0.1,0,0.1,0.1,0.2,0.1c0.2,0.1,0.7,0.3,1.1,0.5
	c0.4,0.2,0.9,0.3,1.1,0.4c0.2,0.1,0.2,0.1,0.3,0c0.1,0,0.2-0.1,0.4-0.1c0.1,0,0.2,0,0.3,0c0.1,0,0.1,0,0.1,0s0,0,0,0.1
	c0,0.1,0.1,0.3,0.2,0.4s0,0.1,0.1,0.1c0.1,0,0.2,0,0.3,0c0.1,0,0.1,0,0.1-0.1c0-0.1,0-0.3,0-0.4c0-0.1,0-0.1,0.2-0.1
	c0.2,0,0.6,0,0.8,0c0.2,0,0.2,0,0.2,0.1c0,0.1,0,0.3,0,0.4c0,0.1,0,0.1,0.1,0.1s0.2,0.1,0.3,0.1c0.1,0,0.1,0,0.1-0.1
	c0-0.1,0.1-0.3,0.2-0.5c0-0.1,0-0.1,0.2-0.1c0.1,0,0.4,0.1,0.5,0.2c0.1,0,0.1,0,0.5-0.1c0.3-0.1,1-0.4,1.5-0.6
	c0.4-0.2,0.6-0.2,0.9-0.5c0.3-0.3,0.6-0.7,0.9-1.2c0.3-0.4,0.7-0.8,1.1-1.2c0.4-0.3,0.7-0.6,1.1-0.8c0.4-0.2,0.8-0.4,1.3-0.6
	c0.5-0.2,1-0.4,1.2-0.5c0.2-0.1,0.2-0.1,0.3-0.2c0-0.1,0.1-0.2,0.1-0.3c0.1-0.5,0.4-1.4,0.9-2.8c0.6-1.5,1.5-3.5,2.2-5
	c0.8-1.5,1.4-2.6,2.8-5c1.4-2.4,3.6-6.1,5.3-8.7c1.7-2.6,2.8-4.2,3.4-5.1c0.7-0.9,0.8-1.2,0.9-1.4c0.1-0.1,0.1-0.1,0.1-0.1
	s0,0-0.3,0c-0.3,0-1,0.1-2,0.1c-1,0-2.2,0-3.7,0c-1.5,0-3.2-0.1-6.2-0.2c-3-0.1-7.3-0.1-10.5-0.1c-3.2,0-5.3,0.1-7.5,0.1
	c-2.2,0-4.4,0-6.4,0c-2,0-3.7,0-5.2,0.1c-1.5,0-2.8,0.1-4.1,0.1c-1.3,0-2.4,0-3.4,0c-0.9,0-1.6,0-2.2,0c-0.6,0-1,0-1.2,0
	c-0.2,0-0.3,0-0.3,0c0,0,0,0,0,0s0,0,0.4,0.6C205,36.9,205.8,38,207.7,40.8z"/>
</svg>